<svg xmlns="http://www.w3.org/2000/svg" xmlns:xlink="http://www.w3.org/1999/xlink" aria-hidden="true" style="position: absolute; width: 0; height: 0; overflow: hidden;" version="1.1">
  <defs>
    <symbol id="full" viewBox="0 0 376 178">
      <g class="signet" style="fill: currentColor">
        <path class="cls-2" d="M113 56.1244L74 33.6077C72.1758 32.5545 70.1064 32 68 32C65.8936 32 63.8242 32.5545 62 33.6077L23 56.1243C21.1781 57.1801 19.6651 58.6956 18.6122 60.5193C17.5593 62.3429 17.0034 64.4109 17 66.5167V111.55C17.0034 113.656 17.5593 115.724 18.6121 117.547C19.665 119.371 21.178 120.886 23 121.942L62 144.459C63.8242 145.512 65.8936 146.067 68 146.067C70.1064 146.067 72.1758 145.512 74 144.459L113 121.942C114.822 120.886 116.335 119.371 117.388 117.547C118.441 115.724 118.997 113.656 119 111.55V66.5167C118.997 64.4109 118.441 62.3429 117.388 60.5193C116.335 58.6956 114.822 57.1802 113 56.1244ZM111 111.55C111 112.252 110.815 112.942 110.464 113.55C110.113 114.158 109.608 114.663 109 115.014L70 137.531C69.3919 137.882 68.7021 138.067 68 138.067C67.2979 138.067 66.6081 137.882 66 137.531L27 115.014C26.3919 114.663 25.887 114.158 25.5359 113.55C25.1848 112.942 25 112.252 25 111.55V66.5167C25 65.8146 25.1848 65.1248 25.5359 64.5167C25.887 63.9086 26.3919 63.4037 27 63.0526L66 40.5359C66.6081 40.1848 67.2979 40 68 40C68.7021 40 69.3919 40.1848 70 40.5359L109 63.0526C109.608 63.4037 110.113 63.9086 110.464 64.5167C110.815 65.1248 111 65.8146 111 66.5167V111.55Z"/>
        <path class="cls-2" d="M91.0216 102.071H88.1556C87.4828 102.071 86.8208 102.241 86.231 102.565L68.95 112.05L49 100.531V77.554L68.95 66.0354L86.239 75.49C86.8275 75.8118 87.4875 75.9805 88.1582 75.9805H91.0215C91.5519 75.9805 92.0606 75.7698 92.4357 75.3947C92.8108 75.0196 93.0215 74.5109 93.0215 73.9805V71.2691C93.0215 70.9102 92.925 70.5579 92.742 70.2492C92.559 69.9405 92.2963 69.6867 91.9815 69.5144L72.793 59.0188C71.5868 58.3628 70.2328 58.0267 68.8599 58.0424C67.487 58.0582 66.141 58.4253 64.9502 59.1088L45 70.6262C43.7854 71.3303 42.7768 72.3407 42.0749 73.5565C41.373 74.7723 41.0024 76.151 41 77.5549V100.531C41 101.935 41.3696 103.315 42.0718 104.531C42.7739 105.747 43.7838 106.757 45 107.459L64.95 118.978C66.1411 119.661 67.4873 120.027 68.8602 120.043C70.2331 120.058 71.5871 119.722 72.7933 119.066L91.9833 108.534C92.2975 108.362 92.5596 108.108 92.7421 107.8C92.9247 107.491 93.021 107.14 93.021 106.781V104.071C93.021 103.541 92.8103 103.032 92.4354 102.657C92.0604 102.282 91.5519 102.071 91.0216 102.071Z"/>
      </g>
      <g class="text" style="fill: currentColor">
        <path class="cls-2" d="M165.687 94.9688C165.458 100.156 164 104.083 161.312 106.75C158.625 109.417 154.833 110.75 149.937 110.75C144.792 110.75 140.844 109.062 138.094 105.688C135.365 102.292 134 97.4583 134 91.1875V83.5312C134 77.2812 135.417 72.4688 138.25 69.0938C141.083 65.6979 145.021 64 150.062 64C155.021 64 158.781 65.3854 161.344 68.1562C163.927 70.9271 165.396 74.9062 165.75 80.0938H156.531C156.448 76.8854 155.948 74.6771 155.031 73.4688C154.135 72.2396 152.479 71.625 150.062 71.625C147.604 71.625 145.865 72.4896 144.844 74.2188C143.823 75.9271 143.281 78.75 143.219 82.6875V91.2812C143.219 95.8021 143.719 98.9062 144.719 100.594C145.74 102.281 147.479 103.125 149.937 103.125C152.354 103.125 154.021 102.542 154.937 101.375C155.854 100.188 156.375 98.0521 156.5 94.9688H165.687Z"/>
        <path class="cls-2" d="M180.188 102.875H196.312V110.5H171V65H180.188V102.875Z"/>
        <path class="cls-2" d="M231.813 91.4688C231.813 97.5729 230.365 102.312 227.469 105.688C224.594 109.062 220.594 110.75 215.469 110.75C210.365 110.75 206.354 109.083 203.438 105.75C200.521 102.396 199.042 97.7083 199 91.6875V83.9062C199 77.6562 200.448 72.7812 203.344 69.2812C206.24 65.7604 210.26 64 215.406 64C220.469 64 224.458 65.7292 227.375 69.1875C230.292 72.625 231.771 77.4583 231.813 83.6875V91.4688ZM222.594 83.8438C222.594 79.7396 222.01 76.6875 220.844 74.6875C219.677 72.6875 217.865 71.6875 215.406 71.6875C212.969 71.6875 211.167 72.6562 210 74.5938C208.833 76.5104 208.229 79.4375 208.188 83.375V91.4688C208.188 95.4479 208.781 98.3854 209.969 100.281C211.156 102.156 212.99 103.094 215.469 103.094C217.865 103.094 219.646 102.177 220.812 100.344C221.979 98.4896 222.573 95.625 222.594 91.75V83.8438Z"/>
        <path class="cls-2" d="M267.969 64V95.5C267.927 100.229 266.625 103.854 264.063 106.375C261.5 108.875 257.823 110.125 253.032 110.125C248.157 110.125 244.427 108.854 241.844 106.312C239.282 103.771 238 100.094 238 95.2812V64H247.25V95.3125C247.25 97.8958 247.667 99.7396 248.5 100.844C249.334 101.948 250.844 102.5 253.032 102.5C255.219 102.5 256.719 101.958 257.532 100.875C258.344 99.7708 258.761 97.9688 258.782 95.4688V64H267.969Z"/>
        <path class="cls-2" d="M275 109.5V64H287.032C292.344 64 296.573 65.6875 299.719 69.0625C302.886 72.4375 304.5 77.0625 304.563 82.9375V90.3125C304.563 96.2917 302.979 100.99 299.813 104.406C296.667 107.802 292.323 109.5 286.782 109.5H275ZM284.188 71.6562V101.875H286.938C290 101.875 292.157 101.073 293.407 99.4688C294.657 97.8438 295.313 95.0521 295.375 91.0938V83.1875C295.375 78.9375 294.782 75.9792 293.594 74.3125C292.407 72.625 290.386 71.7396 287.532 71.6562H284.188Z"/>
        <path class="cls-2" d="M341.003 64H335.003C334.738 64 334.484 64.1054 334.296 64.2929C334.108 64.4804 334.003 64.7348 334.003 65V87.6475C334.044 88.5923 333.893 89.5357 333.56 90.4207C333.227 91.3058 332.718 92.1142 332.064 92.7973C331.41 93.4803 330.624 94.0239 329.755 94.3953C328.885 94.7667 327.949 94.9581 327.003 94.9581C326.057 94.9581 325.121 94.7667 324.252 94.3953C323.382 94.0239 322.596 93.4803 321.942 92.7973C321.288 92.1142 320.779 91.3058 320.446 90.4207C320.113 89.5357 319.962 88.5923 320.003 87.6475V65C320.003 64.7348 319.898 64.4804 319.71 64.2929C319.523 64.1054 319.268 64 319.003 64H313.003C312.738 64 312.484 64.1054 312.296 64.2929C312.108 64.4804 312.003 64.7348 312.003 65V87.6475C311.963 89.643 312.321 91.6265 313.056 93.4819C313.792 95.3373 314.89 97.0273 316.287 98.4529C317.684 99.8785 319.351 101.011 321.191 101.784C323.031 102.557 325.007 102.956 327.003 102.956C328.999 102.956 330.975 102.557 332.815 101.784C334.655 101.011 336.322 99.8785 337.719 98.4529C339.116 97.0273 340.214 95.3373 340.95 93.4819C341.686 91.6265 342.044 89.643 342.003 87.6475V65C342.003 64.7348 341.898 64.4804 341.71 64.2929C341.523 64.1054 341.268 64 341.003 64Z"/>
        <path class="cls-2" d="M357.003 64H351.003C350.451 64 350.003 64.4477 350.003 65V101C350.003 101.552 350.451 102 351.003 102H357.003C357.555 102 358.003 101.552 358.003 101V65C358.003 64.4477 357.555 64 357.003 64Z"/>
        <!-- <rect class="cls-2" x="336" y="64" width="8" height="38" rx="1"/> -->
      </g>
    </symbol>
    <symbol id="signet" viewBox="0 0 160 160">
      <g style="fill: currentColor">
        <path class="cls-1" d="M125,47.091,86,24.5743a12,12,0,0,0-12,0L35,47.091a12.0336,12.0336,0,0,0-6,10.3923v45.0334a12.0335,12.0335,0,0,0,6,10.3923l39,22.5166a11.9993,11.9993,0,0,0,12,0l39-22.5166a12.0335,12.0335,0,0,0,6-10.3923V57.4833A12.0336,12.0336,0,0,0,125,47.091Zm-2,55.4257a4,4,0,0,1-2,3.464L82,128.4974a4,4,0,0,1-4,0L39,105.9807a4,4,0,0,1-2-3.464V57.4833a4,4,0,0,1,2-3.4641L78,31.5025a4,4,0,0,1,4,0l39,22.5167a4,4,0,0,1,2,3.4641Z"/>
        <path class="cls-1" d="M103.0216,93.0379h-2.866a4,4,0,0,0-1.9246.4935L80.95,103.0167,61,91.4981V68.5206L80.95,57.002l17.2894,9.455a4,4,0,0,0,1.9192.4905h2.8632a2,2,0,0,0,2-2V62.2357a2,2,0,0,0-1.04-1.7547L84.793,49.9854a8.0391,8.0391,0,0,0-7.8428.09L57,61.5929A8.0243,8.0243,0,0,0,53,68.5216v22.976a8,8,0,0,0,4,6.9283l19.95,11.5185a8.0422,8.0422,0,0,0,7.8433.0879l19.19-10.5311a2,2,0,0,0,1.0378-1.7534v-2.71A2,2,0,0,0,103.0216,93.0379Z"/>
      </g>
    </symbol>
  </defs>
</svg>
